<svg width="161" height="28" viewBox="0 0 161 28" fill="none" xmlns="http://www.w3.org/2000/svg">
<path d="M11.5233 8.01274C11.2174 7.50286 10.835 7.06947 10.0957 6.63607C8.74448 5.74378 7.31681 5.61631 6.11859 5.74378C5.14981 5.87125 4.10455 6.17717 3.54368 7.3499C3.18677 8.16571 3.39072 9.15997 3.84961 9.74634C4.13005 10.0523 4.35949 10.3072 4.79289 10.5876C5.27728 10.8936 5.71068 11.123 6.39902 11.327L7.67373 11.6839C10.9625 12.6272 12.2627 13.392 12.951 14.1313C13.8433 15.0746 14.6336 16.9611 13.7923 19.1026C13.2569 20.1734 12.3392 21.0912 11.2429 21.703C10.5036 22.0344 9.43283 22.4678 8.59152 22.5188C6.60298 22.7993 4.79289 22.3659 2.95732 21.2441C1.17273 20.1479 0.254941 18.5163 0 17.8024L2.49842 16.8847C2.65139 17.369 3.16127 18.3123 4.30851 19.0516C5.76167 19.9184 6.80693 20.1734 8.31108 19.9694C8.74448 19.9184 9.40733 19.7145 9.9937 19.4086C10.6056 19.0771 11.039 18.6947 11.3449 18.1339C11.8038 17.2161 11.4469 16.3748 11.039 15.9159C10.631 15.406 9.71326 14.9981 7.01088 14.1823L5.71068 13.7999C4.7674 13.5194 3.97708 13.137 3.33973 12.7291C2.54941 12.1938 2.01404 11.6329 1.83558 11.4289C0.917788 10.3327 0.30593 8.21669 1.12174 6.35563C2.06502 4.18864 4.28301 3.37283 5.78717 3.19438C7.26582 3.01592 9.50931 3.16888 11.4724 4.41809C12.5686 5.08093 13.3079 5.87125 13.7668 6.63607L11.5233 8.01274Z" fill="#363A3D"/>
<path d="M25.6541 14.5137C25.5011 12.7801 24.3794 11.327 22.1359 11.327C20.0199 11.327 18.5157 12.3467 18.2608 14.5137H25.6541ZM15.7114 15.61C15.7114 11.9643 17.9803 8.87954 22.0849 8.87954C26.3169 8.87954 27.5151 12.2447 27.6171 12.4997C28.4074 14.5647 28.178 16.7827 28.178 16.7827H18.2608C18.5412 18.6947 19.8159 19.8929 22.1104 19.8929C24.8637 19.8929 25.4246 18.2868 25.4246 18.2868L27.6936 19.3576C27.6936 19.3576 26.5464 22.3149 22.0849 22.3149C17.9803 22.3149 15.7114 19.2301 15.7114 15.61Z" fill="#363A3D"/>
<path d="M36.1176 19.8675C38.1571 19.8675 39.9672 18.1848 39.9927 15.7119C39.9672 13.2645 38.1571 11.5564 36.1176 11.5564C33.5427 11.5564 32.2935 13.341 32.2935 15.7119C32.2935 18.0829 33.5427 19.8675 36.1176 19.8675ZM29.6166 15.7119C29.6166 12.0918 31.8856 9.00701 35.9391 9.00701C37.3923 9.00701 38.9729 9.74634 40.0437 11.327V8.95602H42.6951V22.2129L40.0437 22.2384V20.1224C38.922 21.754 37.4178 22.4423 35.9391 22.4423C31.8856 22.4423 29.6166 19.3321 29.6166 15.7119Z" fill="#363A3D"/>
<path d="M47.7999 11.4289C48.6412 9.74634 50.6807 8.82855 52.0574 8.82855V11.4034C49.6355 11.4034 47.7999 13.6214 47.7999 15.4825V22.2384H45.1485V8.90503H47.7999V11.4289Z" fill="#363A3D"/>
<path d="M59.3631 19.689C60.5103 19.689 61.5301 19.2046 62.2949 18.4398L64.2579 20.3009C63.0342 21.5501 61.3516 22.3404 59.465 22.3404C55.2075 22.3404 52.7091 19.1791 52.7091 15.355C52.7091 11.5309 55.2075 8.36966 59.465 8.36966C61.3516 8.36966 63.0342 9.15997 64.2579 10.4092L62.2949 12.2447C61.5301 11.5054 60.5103 10.9955 59.3631 10.9955C56.6097 10.9955 55.233 12.9331 55.233 15.355C55.233 17.7769 56.6097 19.689 59.3631 19.689Z" fill="#363A3D"/>
<path d="M75.1979 15.1256C75.1979 13.137 74.2036 11.7604 72.1641 11.7604C70.201 11.7604 68.6459 13.443 68.6459 15.4315V22.2894H65.9945V2.93944H68.6459V11.021C69.4617 9.77183 71.0424 9.058 72.2151 9.058C75.5803 9.058 77.7728 11.6584 77.7728 14.8196V22.2894H75.1979V15.1256Z" fill="#363A3D"/>
<path d="M80.0657 2.93944H82.6916V22.2894H80.0657V2.93944Z" fill="#363A3D"/>
<path d="M85.2418 8.87954H87.8677V22.2894H85.2418V8.87954ZM85.0378 4.08667C85.0378 3.24536 85.5732 2.58252 86.5675 2.58252C87.5108 2.58252 88.0461 3.24536 88.0461 4.08667C88.0461 4.92797 87.5108 5.59081 86.5675 5.59081C85.5732 5.59081 85.0378 4.92797 85.0378 4.08667Z" fill="#363A3D"/>
<path d="M96.4445 19.791C98.5095 19.791 100.243 18.0064 100.243 15.6355C100.243 13.3155 98.5095 11.5309 96.4445 11.5309C93.9205 11.5309 92.6458 13.3155 92.6458 15.6355C92.6458 18.0064 93.9205 19.791 96.4445 19.791ZM89.9689 15.6355C89.9689 11.9133 92.2379 8.95602 96.2915 8.95602C97.5407 8.95602 99.3763 9.4659 100.396 11.2505V8.87954H103.073V21.5246C103.047 25.6291 100.141 28 96.062 28C93.7421 28 91.6006 26.8018 90.3769 24.9663L92.6458 23.4621C93.4871 24.8388 94.8893 25.4251 96.062 25.4251C98.28 25.4251 100.396 24.3544 100.396 21.754V19.9949C99.2743 21.6775 97.5407 22.3404 96.2915 22.3404C92.2379 22.3404 89.9689 19.4086 89.9689 15.6355Z" fill="#363A3D"/>
<path d="M114.761 15.1256C114.761 13.137 113.766 11.7604 111.727 11.7604C109.764 11.7604 108.209 13.443 108.209 15.4315V22.2894H105.557V2.93944H108.209V11.021C109.024 9.77183 110.605 9.058 111.778 9.058C115.143 9.058 117.336 11.6584 117.336 14.8196V22.2894H114.761V15.1256Z" fill="#363A3D"/>
<path d="M127.138 21.958C126.552 22.1109 125.43 22.2639 124.589 22.2129C122.626 22.1874 120.637 20.5048 120.637 18.1594V11.3525H118.394V8.80306H120.637V4.29062H123.365V8.80306H126.756V11.3525H123.365V18.1594C123.339 19.0516 123.849 19.485 124.64 19.5105C125.277 19.5105 126.042 19.4086 126.424 19.3066L127.138 21.958Z" fill="#363A3D"/>
<g clip-path="url(#clip0_1802_1710)">
<rect x="132.7" width="27.8114" height="27.8113" rx="13.9057" fill="url(#paint0_angular_1802_1710)"/>
<g filter="url(#filter0_i_1802_1710)">
<path d="M141.838 -3.17847H163.69V18.6733H141.838V-3.17847Z" fill="#34D8AC"/>
</g>
<mask id="mask0_1802_1710" style="mask-type:alpha" maskUnits="userSpaceOnUse" x="141" y="-4" width="23" height="23">
<path d="M141.838 -3.17847H163.69V18.6733H141.838V-3.17847Z" fill="#34D8AC"/>
</mask>
<g mask="url(#mask0_1802_1710)">
<path fill-rule="evenodd" clip-rule="evenodd" d="M146.606 24.2355C152.311 24.2355 156.936 19.6107 156.936 13.9056C156.936 8.20057 152.311 3.5757 146.606 3.5757C140.901 3.5757 136.276 8.20057 136.276 13.9056C136.276 19.6107 140.901 24.2355 146.606 24.2355ZM146.606 25.4274C152.969 25.4274 158.127 20.2689 158.127 13.9056C158.127 7.54229 152.969 2.38379 146.606 2.38379C140.242 2.38379 135.084 7.54229 135.084 13.9056C135.084 20.2689 140.242 25.4274 146.606 25.4274ZM146.606 20.6598C150.336 20.6598 153.36 17.6358 153.36 13.9056C153.36 10.1754 150.336 7.15145 146.606 7.15145C142.876 7.15145 139.852 10.1754 139.852 13.9056C139.852 17.6358 142.876 20.6598 146.606 20.6598ZM146.606 21.8517C150.994 21.8517 154.552 18.2941 154.552 13.9056C154.552 9.51711 150.994 5.95953 146.606 5.95953C142.217 5.95953 138.66 9.51711 138.66 13.9056C138.66 18.2941 142.217 21.8517 146.606 21.8517ZM147.4 13.9056C147.4 14.3445 147.044 14.7002 146.606 14.7002C146.167 14.7002 145.811 14.3445 145.811 13.9056C145.811 13.4668 146.167 13.111 146.606 13.111C147.044 13.111 147.4 13.4668 147.4 13.9056ZM148.592 13.9056C148.592 15.0027 147.703 15.8921 146.606 15.8921C145.508 15.8921 144.619 15.0027 144.619 13.9056C144.619 12.8085 145.508 11.9191 146.606 11.9191C147.703 11.9191 148.592 12.8085 148.592 13.9056Z" fill="url(#paint1_linear_1802_1710)"/>
</g>
</g>
<defs>
<filter id="filter0_i_1802_1710" x="141.838" y="-3.17847" width="21.8518" height="21.8518" filterUnits="userSpaceOnUse" color-interpolation-filters="sRGB">
<feFlood flood-opacity="0" result="BackgroundImageFix"/>
<feBlend mode="normal" in="SourceGraphic" in2="BackgroundImageFix" result="shape"/>
<feColorMatrix in="SourceAlpha" type="matrix" values="0 0 0 0 0 0 0 0 0 0 0 0 0 0 0 0 0 0 127 0" result="hardAlpha"/>
<feOffset/>
<feGaussianBlur stdDeviation="1.98653"/>
<feComposite in2="hardAlpha" operator="arithmetic" k2="-1" k3="1"/>
<feColorMatrix type="matrix" values="0 0 0 0 0 0 0 0 0 0.604167 0 0 0 0 0.442445 0 0 0 1 0"/>
<feBlend mode="normal" in2="shape" result="effect1_innerShadow_1802_1710"/>
</filter>
<radialGradient id="paint0_angular_1802_1710" cx="0" cy="0" r="1" gradientUnits="userSpaceOnUse" gradientTransform="translate(146.606 13.9056) rotate(135) scale(17.8395 9.03184)">
<stop stop-color="#00C993"/>
<stop offset="1" stop-color="#00926B"/>
</radialGradient>
<linearGradient id="paint1_linear_1802_1710" x1="146.705" y1="2.38379" x2="146.705" y2="25.2288" gradientUnits="userSpaceOnUse">
<stop stop-color="white"/>
<stop offset="0.807292" stop-color="white" stop-opacity="0.14"/>
</linearGradient>
<clipPath id="clip0_1802_1710">
<rect x="132.7" width="27.8114" height="27.8113" rx="13.9057" fill="white"/>
</clipPath>
</defs>
</svg>
