<svg width="232" height="41" viewBox="0 0 232 41" fill="none" xmlns="http://www.w3.org/2000/svg">
<path d="M16.5088 11.5612C16.0717 10.8328 15.5254 10.2136 14.4692 9.5945C12.539 8.3198 10.4994 8.1377 8.78769 8.3198C7.40373 8.5019 5.91051 8.93894 5.10927 10.6143C4.59938 11.7797 4.89075 13.2001 5.54631 14.0378C5.94693 14.4748 6.27471 14.839 6.89385 15.2396C7.58583 15.6767 8.20497 16.0044 9.18831 16.2958L11.0093 16.8057C15.7075 18.1532 17.5649 19.2458 18.5483 20.302C19.823 21.6496 20.952 24.3446 19.7501 27.4039C18.9853 28.9336 17.6742 30.2447 16.1081 31.1188C15.0519 31.5922 13.5223 32.2114 12.3204 32.2842C9.47968 32.6848 6.89385 32.0657 4.2716 30.4632C1.7222 28.8971 0.411076 26.5663 0.046875 25.5465L3.61604 24.2354C3.83456 24.9274 4.56296 26.2749 6.20187 27.3311C8.27781 28.5694 9.77104 28.9336 11.9198 28.6422C12.539 28.5694 13.4859 28.278 14.3235 27.841C15.1976 27.3675 15.8168 26.8212 16.2538 26.02C16.9094 24.7088 16.3995 23.507 15.8168 22.8514C15.234 22.123 13.9229 21.5403 10.0624 20.3748L8.20497 19.8285C6.85743 19.4279 5.72841 18.8816 4.81791 18.2989C3.68888 17.5341 2.92406 16.7328 2.66912 16.4415C1.358 14.8754 0.483916 11.8525 1.64936 9.19388C2.9969 6.09818 6.16545 4.93273 8.31423 4.67779C10.4266 4.42285 13.6316 4.64137 16.4359 6.42596C18.002 7.37288 19.0582 8.5019 19.7137 9.5945L16.5088 11.5612Z" fill="#363A3D"/>
<path d="M36.6954 20.8483C36.4769 18.3717 34.8744 16.2958 31.6695 16.2958C28.6466 16.2958 26.4978 17.7526 26.1336 20.8483H36.6954ZM22.4916 22.4144C22.4916 17.2063 25.733 12.7995 31.5966 12.7995C37.6424 12.7995 39.3541 17.6069 39.4998 17.9711C40.6288 20.9212 40.301 24.0897 40.301 24.0897H26.1336C26.5342 26.8212 28.3552 28.5329 31.633 28.5329C35.5664 28.5329 36.3676 26.2385 36.3676 26.2385L39.609 27.7681C39.609 27.7681 37.9701 31.9929 31.5966 31.9929C25.733 31.9929 22.4916 27.586 22.4916 22.4144Z" fill="#363A3D"/>
<path d="M51.6433 28.4965C54.5569 28.4965 57.1427 26.0928 57.1792 22.5601C57.1427 19.0637 54.5569 16.6236 51.6433 16.6236C47.9649 16.6236 46.1803 19.173 46.1803 22.5601C46.1803 25.9471 47.9649 28.4965 51.6433 28.4965ZM42.3562 22.5601C42.3562 17.3884 45.5976 12.9816 51.3884 12.9816C53.4643 12.9816 55.7224 14.0378 57.252 16.2958V12.9087H61.0397V31.8472L57.252 31.8836V28.8607C55.6495 31.1916 53.5007 32.175 51.3884 32.175C45.5976 32.175 42.3562 27.7317 42.3562 22.5601Z" fill="#363A3D"/>
<path d="M68.3322 16.4415C69.5341 14.0378 72.4477 12.7266 74.4144 12.7266V16.4051C70.9545 16.4051 68.3322 19.5736 68.3322 22.2323V31.8836H64.5446V12.8359H68.3322V16.4415Z" fill="#363A3D"/>
<path d="M84.851 28.2416C86.4899 28.2416 87.9467 27.5496 89.0393 26.457L91.8437 29.1157C90.0955 30.9003 87.6918 32.0293 84.9967 32.0293C78.9146 32.0293 75.3454 27.5132 75.3454 22.0502C75.3454 16.5872 78.9146 12.0711 84.9967 12.0711C87.6918 12.0711 90.0955 13.2001 91.8437 14.9847L89.0393 17.6069C87.9467 16.5507 86.4899 15.8223 84.851 15.8223C80.9177 15.8223 78.951 18.5903 78.951 22.0502C78.951 25.5101 80.9177 28.2416 84.851 28.2416Z" fill="#363A3D"/>
<path d="M107.472 21.7224C107.472 18.8816 106.052 16.9149 103.138 16.9149C100.334 16.9149 98.1122 19.3187 98.1122 22.1594V31.9564H94.3245V4.31359H98.1122V15.8588C99.2776 14.0742 101.536 13.0544 103.211 13.0544C108.018 13.0544 111.151 16.7693 111.151 21.2854V31.9564H107.472V21.7224Z" fill="#363A3D"/>
<path d="M114.426 4.31359H118.177V31.9564H114.426V4.31359Z" fill="#363A3D"/>
<path d="M121.821 12.7995H125.572V31.9564H121.821V12.7995ZM121.529 5.9525C121.529 4.75063 122.294 3.80371 123.714 3.80371C125.062 3.80371 125.827 4.75063 125.827 5.9525C125.827 7.15436 125.062 8.10128 123.714 8.10128C122.294 8.10128 121.529 7.15436 121.529 5.9525Z" fill="#363A3D"/>
<path d="M137.824 28.3873C140.774 28.3873 143.251 25.8379 143.251 22.4508C143.251 19.1366 140.774 16.5872 137.824 16.5872C134.219 16.5872 132.398 19.1366 132.398 22.4508C132.398 25.8379 134.219 28.3873 137.824 28.3873ZM128.574 22.4508C128.574 17.1335 131.815 12.9087 137.606 12.9087C139.39 12.9087 142.013 13.6371 143.469 16.1865V12.7995H147.294V30.8638C147.257 36.7275 143.105 40.1145 137.278 40.1145C133.964 40.1145 130.904 38.4028 129.156 35.7805L132.398 33.6318C133.6 35.5984 135.603 36.4361 137.278 36.4361C140.447 36.4361 143.469 34.9065 143.469 31.1916V28.6786C141.867 31.0824 139.39 32.0293 137.606 32.0293C131.815 32.0293 128.574 27.841 128.574 22.4508Z" fill="#363A3D"/>
<path d="M163.99 21.7224C163.99 18.8816 162.57 16.9149 159.656 16.9149C156.852 16.9149 154.63 19.3187 154.63 22.1594V31.9564H150.842V4.31359H154.63V15.8588C155.796 14.0742 158.054 13.0544 159.729 13.0544C164.536 13.0544 167.669 16.7693 167.669 21.2854V31.9564H163.99V21.7224Z" fill="#363A3D"/>
<path d="M181.672 31.483C180.834 31.7015 179.232 31.92 178.03 31.8472C175.226 31.8108 172.385 29.407 172.385 26.0564V16.3322H169.18V12.6902H172.385V6.24386H176.282V12.6902H181.126V16.3322H176.282V26.0564C176.246 27.3311 176.974 27.9502 178.103 27.9866C179.013 27.9866 180.106 27.841 180.652 27.6953L181.672 31.483Z" fill="#363A3D"/>
<g clip-path="url(#clip0_1752_863)">
<rect x="191.953" width="40" height="40" rx="20" fill="url(#paint0_linear_1752_863)"/>
<rect x="191.953" width="40" height="40" rx="20" fill="url(#paint1_linear_1752_863)"/>
<g filter="url(#filter0_i_1752_863)">
<path d="M205.096 -4.57153L236.525 -4.57153V26.857H205.096V-4.57153Z" fill="#34D8AC"/>
</g>
<mask id="mask0_1752_863" style="mask-type:alpha" maskUnits="userSpaceOnUse" x="205" y="0" width="27" height="27">
<path d="M205.096 0L231.953 0V26.8571H205.096V0Z" fill="#34D8AC"/>
</mask>
<g mask="url(#mask0_1752_863)">
<path fill-rule="evenodd" clip-rule="evenodd" d="M214.809 20.0845C214.762 21.6618 213.446 22.9025 211.869 22.8558C210.291 22.809 209.051 21.4925 209.097 19.9153C209.144 18.338 210.461 17.0973 212.038 17.144C213.615 17.1907 214.856 18.5073 214.809 20.0845ZM213.095 20.0337C213.077 20.6647 212.55 21.1609 211.919 21.1422C211.288 21.1236 210.792 20.5969 210.811 19.966C210.829 19.3351 211.356 18.8388 211.987 18.8575C212.618 18.8762 213.114 19.4028 213.095 20.0337Z" fill="url(#paint2_linear_1752_863)"/>
<path fill-rule="evenodd" clip-rule="evenodd" d="M211.953 31.4285C218.265 31.4285 223.382 26.3117 223.382 19.9999C223.382 13.6881 218.265 8.57132 211.953 8.57132C205.641 8.57132 200.525 13.6881 200.525 19.9999C200.525 26.3117 205.641 31.4285 211.953 31.4285ZM211.953 29.7142C217.318 29.7142 221.667 25.3649 221.667 19.9999C221.667 14.6348 217.318 10.2856 211.953 10.2856C206.588 10.2856 202.239 14.6348 202.239 19.9999C202.239 25.3649 206.588 29.7142 211.953 29.7142Z" fill="url(#paint3_linear_1752_863)"/>
<path fill-rule="evenodd" clip-rule="evenodd" d="M211.953 36.5713C221.105 36.5713 228.525 29.152 228.525 19.9999C228.525 10.8477 221.105 3.42847 211.953 3.42847C202.801 3.42847 195.382 10.8477 195.382 19.9999C195.382 29.152 202.801 36.5713 211.953 36.5713ZM211.953 34.857C220.159 34.857 226.81 28.2053 226.81 19.9999C226.81 11.7945 220.159 5.14275 211.953 5.14275C203.748 5.14275 197.096 11.7945 197.096 19.9999C197.096 28.2053 203.748 34.857 211.953 34.857Z" fill="url(#paint4_linear_1752_863)"/>
</g>
</g>
<defs>
<filter id="filter0_i_1752_863" x="205.096" y="-6.85725" width="33.7143" height="33.7142" filterUnits="userSpaceOnUse" color-interpolation-filters="sRGB">
<feFlood flood-opacity="0" result="BackgroundImageFix"/>
<feBlend mode="normal" in="SourceGraphic" in2="BackgroundImageFix" result="shape"/>
<feColorMatrix in="SourceAlpha" type="matrix" values="0 0 0 0 0 0 0 0 0 0 0 0 0 0 0 0 0 0 127 0" result="hardAlpha"/>
<feOffset dx="2.28571" dy="-2.28571"/>
<feGaussianBlur stdDeviation="4"/>
<feComposite in2="hardAlpha" operator="arithmetic" k2="-1" k3="1"/>
<feColorMatrix type="matrix" values="0 0 0 0 0 0 0 0 0 0.604167 0 0 0 0 0.442445 0 0 0 1 0"/>
<feBlend mode="normal" in2="shape" result="effect1_innerShadow_1752_863"/>
</filter>
<linearGradient id="paint0_linear_1752_863" x1="178.155" y1="14.1863" x2="198.022" y2="34.0529" gradientUnits="userSpaceOnUse">
<stop offset="0.175" stop-color="#00BC8A"/>
<stop offset="0.999" stop-color="#40D4AD"/>
<stop offset="1" stop-color="#40D4AD" stop-opacity="0"/>
</linearGradient>
<linearGradient id="paint1_linear_1752_863" x1="212.219" y1="48.2253" x2="197.878" y2="34.097" gradientUnits="userSpaceOnUse">
<stop offset="0.175" stop-color="#01A277"/>
<stop offset="0.999" stop-color="#01936C"/>
<stop offset="1" stop-color="#40D4AD" stop-opacity="0"/>
</linearGradient>
<linearGradient id="paint2_linear_1752_863" x1="212.096" y1="3.42847" x2="212.096" y2="36.2856" gradientUnits="userSpaceOnUse">
<stop stop-color="white"/>
<stop offset="0.807292" stop-color="white" stop-opacity="0.14"/>
</linearGradient>
<linearGradient id="paint3_linear_1752_863" x1="212.096" y1="3.42847" x2="212.096" y2="36.2856" gradientUnits="userSpaceOnUse">
<stop stop-color="white"/>
<stop offset="0.807292" stop-color="white" stop-opacity="0.14"/>
</linearGradient>
<linearGradient id="paint4_linear_1752_863" x1="212.096" y1="3.42847" x2="212.096" y2="36.2856" gradientUnits="userSpaceOnUse">
<stop stop-color="white"/>
<stop offset="0.807292" stop-color="white" stop-opacity="0.14"/>
</linearGradient>
<clipPath id="clip0_1752_863">
<rect x="191.953" width="40" height="40" rx="20" fill="white"/>
</clipPath>
</defs>
</svg>
