<svg width="29" height="28" viewBox="0 0 29 28" fill="none" xmlns="http://www.w3.org/2000/svg">
<mask id="mask0_1802_1734" style="mask-type:alpha" maskUnits="userSpaceOnUse" x="0" y="0" width="29" height="28">
<rect x="0.5" width="28" height="28" fill="#D9D9D9"/>
</mask>
<g mask="url(#mask0_1802_1734)">
<path d="M13.6251 14.8751H7.79175C7.54383 14.8751 7.33607 14.7912 7.16846 14.6234C7.00065 14.4556 6.91675 14.2477 6.91675 13.9998C6.91675 13.7517 7.00065 13.5439 7.16846 13.3765C7.33607 13.2089 7.54383 13.1251 7.79175 13.1251H13.6251V7.29175C13.6251 7.04383 13.709 6.83607 13.8768 6.66846C14.0446 6.50065 14.2525 6.41675 14.5004 6.41675C14.7485 6.41675 14.9562 6.50065 15.1237 6.66846C15.2913 6.83607 15.3751 7.04383 15.3751 7.29175V13.1251H21.2084C21.4563 13.1251 21.6641 13.209 21.8317 13.3768C21.9995 13.5446 22.0834 13.7525 22.0834 14.0004C22.0834 14.2485 21.9995 14.4562 21.8317 14.6237C21.6641 14.7913 21.4563 14.8751 21.2084 14.8751H15.3751V20.7084C15.3751 20.9563 15.2912 21.1641 15.1234 21.3317C14.9556 21.4995 14.7477 21.5834 14.4998 21.5834C14.2517 21.5834 14.0439 21.4995 13.8765 21.3317C13.7089 21.1641 13.6251 20.9563 13.6251 20.7084V14.8751Z" fill="#00B887"/>
</g>
</svg>
