<svg width="20" height="20" viewBox="0 0 20 20" fill="none" xmlns="http://www.w3.org/2000/svg">
<mask id="mask0_1402_760" style="mask-type:alpha" maskUnits="userSpaceOnUse" x="0" y="0" width="20" height="20">
<rect width="20" height="20" fill="#D9D9D9"/>
</mask>
<g mask="url(#mask0_1402_760)">
<path d="M7.95838 12.9296L15.1571 5.73084C15.281 5.60681 15.426 5.54347 15.5921 5.54084C15.7582 5.5382 15.9059 5.60153 16.0353 5.73084C16.1646 5.86014 16.2292 6.00861 16.2292 6.17625C16.2292 6.34403 16.1646 6.49257 16.0353 6.62188L8.48567 14.1844C8.33498 14.3349 8.15921 14.4102 7.95838 14.4102C7.75755 14.4102 7.58178 14.3349 7.43109 14.1844L3.95192 10.7052C3.82803 10.5812 3.76692 10.434 3.76859 10.2635C3.77012 10.0933 3.83553 9.94347 3.96484 9.81417C4.09414 9.68486 4.24262 9.62021 4.41025 9.62021C4.57803 9.62021 4.72657 9.68486 4.85588 9.81417L7.95838 12.9296Z" fill="currentColor"/>
</g>
</svg>
