<svg width="24" height="25" viewBox="0 0 24 25" fill="none" xmlns="http://www.w3.org/2000/svg">
<mask id="mask0_1402_755" style="mask-type:alpha" maskUnits="userSpaceOnUse" x="0" y="0" width="24" height="25">
<rect y="0.5" width="24" height="24" fill="#D9D9D9"/>
</mask>
<g mask="url(#mask0_1402_755)">
<path d="M9.55001 16.0155L18.1885 7.37701C18.3372 7.22817 18.5112 7.15217 18.7105 7.14901C18.9098 7.14584 19.0871 7.22184 19.2423 7.37701C19.3974 7.53217 19.475 7.71034 19.475 7.91151C19.475 8.11284 19.3974 8.29109 19.2423 8.44625L10.1828 17.5213C10.0019 17.7019 9.79101 17.7923 9.55001 17.7923C9.30901 17.7923 9.09809 17.7019 8.91726 17.5213L4.74226 13.3463C4.59359 13.1974 4.52026 13.0208 4.52226 12.8163C4.52409 12.6119 4.60259 12.4322 4.75776 12.277C4.91292 12.1218 5.09109 12.0443 5.29226 12.0443C5.49359 12.0443 5.67184 12.1218 5.82701 12.277L9.55001 16.0155Z" fill="currentColor"/>
</g>
</svg>
