<svg xmlns="http://www.w3.org/2000/svg" width="16" height="16" viewBox="0 0 16 16" fill="none">
  <mask id="mask0_1973_494" style="mask-type:alpha" maskUnits="userSpaceOnUse" x="0" y="0" width="16" height="16">
    <rect width="16" height="16" fill="#D9D9D9"/>
  </mask>
  <g mask="url(#mask0_1973_494)">
    <path d="M7.99982 8.70255L10.0486 10.7513C10.1409 10.8436 10.2569 10.8908 10.3966 10.8929C10.5364 10.8951 10.6545 10.8479 10.7511 10.7513C10.8477 10.6547 10.896 10.5376 10.896 10.4C10.896 10.2624 10.8477 10.1453 10.7511 10.0487L8.70237 8L10.7511 5.95127C10.8434 5.85897 10.8906 5.74295 10.8928 5.6032C10.8949 5.46347 10.8477 5.34532 10.7511 5.24874C10.6545 5.15215 10.5374 5.10385 10.3998 5.10385C10.2622 5.10385 10.1451 5.15215 10.0486 5.24874L7.99982 7.29745L5.95109 5.24874C5.85879 5.15643 5.74277 5.1092 5.60302 5.10707C5.46329 5.10493 5.34513 5.15215 5.24855 5.24874C5.15197 5.34532 5.10367 5.4624 5.10367 5.6C5.10367 5.7376 5.15197 5.85469 5.24855 5.95127L7.29727 8L5.24855 10.0487C5.15624 10.141 5.10902 10.2571 5.10689 10.3968C5.10474 10.5365 5.15197 10.6547 5.24855 10.7513C5.34513 10.8479 5.46222 10.8962 5.59982 10.8962C5.73742 10.8962 5.85451 10.8479 5.95109 10.7513L7.99982 8.70255ZM8.00094 14.3333C7.12498 14.3333 6.30163 14.1671 5.53087 13.8347C4.7601 13.5022 4.08965 13.051 3.5195 12.4812C2.94935 11.9113 2.49798 11.2411 2.16539 10.4707C1.8328 9.70026 1.6665 8.87708 1.6665 8.00112C1.6665 7.12517 1.83273 6.30181 2.16517 5.53105C2.49762 4.76029 2.94878 4.08983 3.51867 3.51969C4.08857 2.94953 4.75873 2.49816 5.52915 2.16557C6.29957 1.83298 7.12275 1.66669 7.9987 1.66669C8.87466 1.66669 9.69802 1.83291 10.4688 2.16535C11.2395 2.4978 11.91 2.94897 12.4801 3.51885C13.0503 4.08875 13.5017 4.75892 13.8343 5.52934C14.1668 6.29975 14.3331 7.12293 14.3331 7.99889C14.3331 8.87484 14.1669 9.6982 13.8345 10.469C13.502 11.2397 13.0509 11.9102 12.481 12.4803C11.9111 13.0505 11.2409 13.5019 10.4705 13.8344C9.70008 14.167 8.87689 14.3333 8.00094 14.3333ZM7.99982 13.3333C9.48871 13.3333 10.7498 12.8167 11.7832 11.7833C12.8165 10.75 13.3332 9.48889 13.3332 8C13.3332 6.51112 12.8165 5.25 11.7832 4.21667C10.7498 3.18334 9.48871 2.66667 7.99982 2.66667C6.51093 2.66667 5.24982 3.18334 4.21649 4.21667C3.18315 5.25 2.66649 6.51112 2.66649 8C2.66649 9.48889 3.18315 10.75 4.21649 11.7833C5.24982 12.8167 6.51093 13.3333 7.99982 13.3333Z" fill="currentColor"/>
  </g>
</svg>
