<svg width="24" height="25" viewBox="0 0 24 25" fill="none" xmlns="http://www.w3.org/2000/svg">
<mask id="mask0_1916_702" style="mask-type:alpha" maskUnits="userSpaceOnUse" x="0" y="0" width="24" height="25">
<rect y="0.5" width="24" height="24" fill="#D9D9D9"/>
</mask>
<g mask="url(#mask0_1916_702)">
<path d="M7.6155 20.5C7.168 20.5 6.78683 20.3426 6.472 20.028C6.15733 19.7131 6 19.332 6 18.8845V6.49996H5V5.49996H9V4.73071H15V5.49996H19V6.49996H18V18.8845C18 19.3448 17.8458 19.7291 17.5375 20.0375C17.2292 20.3458 16.8448 20.5 16.3845 20.5H7.6155ZM17 6.49996H7V18.8845C7 19.064 7.05767 19.2115 7.173 19.327C7.2885 19.4423 7.436 19.5 7.6155 19.5H16.3845C16.5385 19.5 16.6796 19.4359 16.8077 19.3077C16.9359 19.1795 17 19.0385 17 18.8845V6.49996ZM9.80775 17.5H10.8078V8.49996H9.80775V17.5ZM13.1923 17.5H14.1923V8.49996H13.1923V17.5Z" fill="#DB3535"/>
</g>
</svg>
