<svg width="16" height="16" viewBox="0 0 16 16" fill="none" xmlns="http://www.w3.org/2000/svg">
<mask id="mask0_50_5391" style="mask-type:alpha" maskUnits="userSpaceOnUse" x="0" y="0" width="16" height="16">
<rect width="16" height="16" fill="#D9D9D9"/>
</mask>
<g mask="url(#mask0_50_5391)">
<path d="M4.08972 4.62822C3.76579 4.62822 3.49037 4.51476 3.26346 4.28784C3.03653 4.06092 2.92307 3.78549 2.92307 3.46157C2.92307 3.13764 3.03653 2.86221 3.26346 2.63529C3.49037 2.40838 3.76579 2.29492 4.08972 2.29492C4.41366 2.29492 4.68908 2.40838 4.91599 2.63529C5.14291 2.86221 5.25637 3.13764 5.25637 3.46157C5.25637 3.78549 5.14291 4.06092 4.91599 4.28784C4.68908 4.51476 4.41366 4.62822 4.08972 4.62822ZM1.58972 7.16667V6.91797C1.58972 6.68977 1.6534 6.48272 1.78075 6.29682C1.90811 6.11093 2.08247 5.96884 2.30382 5.87054C2.5799 5.74832 2.86644 5.65601 3.16344 5.59362C3.46045 5.53123 3.76921 5.50004 4.08972 5.50004C4.41023 5.50004 4.71899 5.53123 5.01601 5.59362C5.31302 5.65601 5.59956 5.74832 5.87562 5.87054C6.09698 5.96884 6.27133 6.11093 6.39869 6.29682C6.52603 6.48272 6.5897 6.68977 6.5897 6.91797V7.16667H1.58972ZM11.9102 4.62822C11.5863 4.62822 11.3109 4.51476 11.084 4.28784C10.857 4.06092 10.7436 3.78549 10.7436 3.46157C10.7436 3.13764 10.857 2.86221 11.084 2.63529C11.3109 2.40838 11.5863 2.29492 11.9102 2.29492C12.2342 2.29492 12.5096 2.40838 12.7365 2.63529C12.9634 2.86221 13.0769 3.13764 13.0769 3.46157C13.0769 3.78549 12.9634 4.06092 12.7365 4.28784C12.5096 4.51476 12.2342 4.62822 11.9102 4.62822ZM9.41024 7.16667V6.91797C9.41024 6.68977 9.47391 6.48272 9.60126 6.29682C9.72861 6.11093 9.90297 5.96884 10.1243 5.87054C10.4004 5.74832 10.6869 5.65601 10.9839 5.59362C11.2809 5.53123 11.5897 5.50004 11.9102 5.50004C12.2307 5.50004 12.5395 5.53123 12.8365 5.59362C13.1335 5.65601 13.42 5.74832 13.6961 5.87054C13.9175 5.96884 14.0918 6.11093 14.2192 6.29682C14.3465 6.48272 14.4102 6.68977 14.4102 6.91797V7.16667H9.41024ZM3.71922 13.2833L2.05641 11.6269C1.994 11.5645 1.94999 11.4987 1.92435 11.4295C1.89871 11.3603 1.88589 11.2855 1.88589 11.2051C1.88589 11.1248 1.89871 11.05 1.92435 10.9808C1.94999 10.9116 1.994 10.8457 2.05641 10.7834L3.72947 9.11027C3.82178 9.01797 3.93332 8.97076 4.06407 8.96862C4.19484 8.96648 4.31193 9.01712 4.41535 9.12054C4.50765 9.21284 4.55381 9.32886 4.55381 9.46861C4.55381 9.60834 4.50765 9.72436 4.41535 9.81667L3.52687 10.7052H12.4731L11.5743 9.80642C11.482 9.71411 11.4359 9.60257 11.4359 9.47181C11.4359 9.34104 11.4876 9.22395 11.591 9.12054C11.6833 9.02823 11.7993 8.98207 11.9391 8.98207C12.0788 8.98207 12.1948 9.02823 12.2871 9.12054L13.9435 10.7834C14.0059 10.8457 14.05 10.9116 14.0756 10.9808C14.1012 11.05 14.1141 11.1248 14.1141 11.2051C14.1141 11.2855 14.1012 11.3603 14.0756 11.4295C14.05 11.4987 14.0059 11.5645 13.9435 11.6269L12.2705 13.3C12.1782 13.3923 12.0677 13.4385 11.9391 13.4385C11.8104 13.4385 11.6944 13.3867 11.591 13.2833C11.4987 13.191 11.4525 13.075 11.4525 12.9353C11.4525 12.7955 11.4987 12.6795 11.591 12.5872L12.4731 11.7051H3.52687L4.42561 12.6039C4.51792 12.6962 4.56514 12.8066 4.56727 12.9353C4.5694 13.0639 4.51877 13.1799 4.41535 13.2833C4.32304 13.3756 4.20702 13.4218 4.06729 13.4218C3.92754 13.4218 3.81152 13.3756 3.71922 13.2833Z" fill="currentColor"/>
</g>
</svg>
