<svg width="16" height="16" viewBox="0 0 16 16" fill="none" xmlns="http://www.w3.org/2000/svg">
<mask id="mask0_1948_3778" style="mask-type:alpha" maskUnits="userSpaceOnUse" x="0" y="0" width="16" height="16">
<rect width="16" height="16" fill="#D9D9D9"/>
</mask>
<g mask="url(#mask0_1948_3778)">
<path d="M7.24998 8.75004V10.4167C7.24998 10.6262 7.32265 10.8035 7.46798 10.9487C7.6132 11.094 7.79053 11.1667 7.99998 11.1667C8.20942 11.1667 8.38676 11.094 8.53198 10.9487C8.67731 10.8035 8.74998 10.6262 8.74998 10.4167V8.75004H10.4166C10.6261 8.75004 10.8034 8.67737 10.9486 8.53204C11.094 8.38682 11.1666 8.20948 11.1666 8.00004C11.1666 7.7906 11.094 7.61326 10.9486 7.46804C10.8034 7.32271 10.6261 7.25004 10.4166 7.25004H8.74998V5.58337C8.74998 5.37393 8.67731 5.1966 8.53198 5.05137C8.38676 4.90604 8.20942 4.83337 7.99998 4.83337C7.79053 4.83337 7.6132 4.90604 7.46798 5.05137C7.32265 5.1966 7.24998 5.37393 7.24998 5.58337V7.25004H5.58331C5.37387 7.25004 5.19653 7.32271 5.05131 7.46804C4.90598 7.61326 4.83331 7.7906 4.83331 8.00004C4.83331 8.20948 4.90598 8.38682 5.05131 8.53204C5.19653 8.67737 5.37387 8.75004 5.58331 8.75004H7.24998ZM3.53848 13.6667C3.2017 13.6667 2.91665 13.55 2.68331 13.3167C2.44998 13.0834 2.33331 12.7983 2.33331 12.4615V3.53854C2.33331 3.20176 2.44998 2.91671 2.68331 2.68337C2.91665 2.45004 3.2017 2.33337 3.53848 2.33337H12.4615C12.7983 2.33337 13.0833 2.45004 13.3166 2.68337C13.55 2.91671 13.6666 3.20176 13.6666 3.53854V12.4615C13.6666 12.7983 13.55 13.0834 13.3166 13.3167C13.0833 13.55 12.7983 13.6667 12.4615 13.6667H3.53848ZM3.53848 12.6667H12.4615C12.5128 12.6667 12.5598 12.6453 12.6025 12.6025C12.6453 12.5599 12.6666 12.5129 12.6666 12.4615V3.53854C12.6666 3.48721 12.6453 3.44021 12.6025 3.39754C12.5598 3.35476 12.5128 3.33337 12.4615 3.33337H3.53848C3.48715 3.33337 3.44015 3.35476 3.39748 3.39754C3.3547 3.44021 3.33331 3.48721 3.33331 3.53854V12.4615C3.33331 12.5129 3.3547 12.5599 3.39748 12.6025C3.44015 12.6453 3.48715 12.6667 3.53848 12.6667Z" fill="#363A3D"/>
</g>
</svg>
