<svg width="28" height="28" viewBox="0 0 28 28" fill="none" xmlns="http://www.w3.org/2000/svg">
<mask id="mask0_1364_1530" style="mask-type:alpha" maskUnits="userSpaceOnUse" x="0" y="0" width="28" height="28">
<rect width="28" height="28" fill="#D9D9D9"/>
</mask>
<g mask="url(#mask0_1364_1530)">
<path d="M13.282 22.75C12.9888 22.75 12.7435 22.6512 12.5462 22.4537C12.3486 22.2563 12.2498 22.011 12.2498 21.7178V14.9648L5.71884 6.66808C5.49445 6.36883 5.46188 6.05772 5.62113 5.73475C5.78057 5.41158 6.04949 5.25 6.42788 5.25H21.5718C21.9502 5.25 22.2191 5.41158 22.3785 5.73475C22.5378 6.05772 22.5052 6.36883 22.2808 6.66808L15.7498 14.9648V21.7178C15.7498 22.011 15.6511 22.2563 15.4535 22.4537C15.2561 22.6512 15.0109 22.75 14.7176 22.75H13.282ZM13.9998 14.35L19.7748 7H8.22484L13.9998 14.35Z" fill="#ABABAB"/>
</g>
</svg>
