<svg width="29" height="28" viewBox="0 0 29 28" fill="none" xmlns="http://www.w3.org/2000/svg">
<mask id="mask0_1364_1144" style="mask-type:alpha" maskUnits="userSpaceOnUse" x="0" y="0" width="29" height="28">
<rect x="0.5" width="28" height="28" fill="#D9D9D9"/>
</mask>
<g mask="url(#mask0_1364_1144)">
<path d="M13.7822 22.75C13.4889 22.75 13.2437 22.6512 13.0463 22.4537C12.8487 22.2563 12.75 22.011 12.75 21.7178V14.9648L6.21896 6.66808C5.99457 6.36883 5.962 6.05772 6.12125 5.73475C6.2807 5.41158 6.54961 5.25 6.928 5.25H22.0719C22.4503 5.25 22.7192 5.41158 22.8787 5.73475C23.0379 6.05772 23.0054 6.36883 22.781 6.66808L16.25 14.9648V21.7178C16.25 22.011 16.1512 22.2563 15.9536 22.4537C15.7563 22.6512 15.511 22.75 15.2178 22.75H13.7822Z" fill="#00B887"/>
</g>
</svg>
