<svg width="16" height="16" viewBox="0 0 16 16" fill="none" xmlns="http://www.w3.org/2000/svg">
<mask id="mask0_1948_3790" style="mask-type:alpha" maskUnits="userSpaceOnUse" x="0" y="0" width="16" height="16">
<rect width="16" height="16" fill="#D9D9D9"/>
</mask>
<g mask="url(#mask0_1948_3790)">
<path d="M2.33331 6.73087V2.93604C2.33331 2.76526 2.39109 2.62215 2.50665 2.50671C2.62209 2.39115 2.7652 2.33337 2.93598 2.33337H6.73081C6.90148 2.33337 7.04459 2.39115 7.16015 2.50671C7.27559 2.62215 7.33331 2.76526 7.33331 2.93604V6.73087C7.33331 6.90154 7.27559 7.04465 7.16015 7.16021C7.04459 7.27565 6.90148 7.33337 6.73081 7.33337H2.93598C2.7652 7.33337 2.62209 7.27565 2.50665 7.16021C2.39109 7.04465 2.33331 6.90154 2.33331 6.73087ZM3.33331 6.33337H6.33331V3.33337H3.33331V6.33337ZM2.33331 13.064V9.26921C2.33331 9.09854 2.39109 8.95543 2.50665 8.83987C2.62209 8.72443 2.7652 8.66671 2.93598 8.66671H6.73081C6.90148 8.66671 7.04459 8.72443 7.16015 8.83987C7.27559 8.95543 7.33331 9.09854 7.33331 9.26921V13.064C7.33331 13.2348 7.27559 13.3779 7.16015 13.4934C7.04459 13.6089 6.90148 13.6667 6.73081 13.6667H2.93598C2.7652 13.6667 2.62209 13.6089 2.50665 13.4934C2.39109 13.3779 2.33331 13.2348 2.33331 13.064ZM3.33331 12.6667H6.33331V9.66671H3.33331V12.6667ZM8.66665 6.73087V2.93604C8.66665 2.76526 8.72437 2.62215 8.83981 2.50671C8.95537 2.39115 9.09848 2.33337 9.26915 2.33337H13.064C13.2348 2.33337 13.3779 2.39115 13.4933 2.50671C13.6089 2.62215 13.6666 2.76526 13.6666 2.93604V6.73087C13.6666 6.90154 13.6089 7.04465 13.4933 7.16021C13.3779 7.27565 13.2348 7.33337 13.064 7.33337H9.26915C9.09848 7.33337 8.95537 7.27565 8.83981 7.16021C8.72437 7.04465 8.66665 6.90154 8.66665 6.73087ZM9.66665 6.33337H12.6666V3.33337H9.66665V6.33337ZM12.4166 13.6667V12.4167H13.6666V13.6667H12.4166ZM8.66665 9.91671V8.66671H9.91665V9.91671H8.66665ZM9.91665 11.1667V9.91671H11.1666V11.1667H9.91665ZM8.66665 12.4167V11.1667H9.91665V12.4167H8.66665ZM9.91665 13.6667V12.4167H11.1666V13.6667H9.91665ZM11.1666 12.4167V11.1667H12.4166V12.4167H11.1666ZM11.1666 9.91671V8.66671H12.4166V9.91671H11.1666ZM12.4166 11.1667V9.91671H13.6666V11.1667H12.4166Z" fill="#363A3D"/>
</g>
</svg>
