<svg width="16" height="16" viewBox="0 0 16 16" fill="none" xmlns="http://www.w3.org/2000/svg">
<mask id="mask0_50_4499" style="mask-type:alpha" maskUnits="userSpaceOnUse" x="0" y="0" width="16" height="16">
<rect width="16" height="16" fill="#D9D9D9"/>
</mask>
<g mask="url(#mask0_50_4499)">
<path d="M7.99999 13.009C9.30426 11.8415 10.3023 10.7217 10.9942 9.64943C11.6861 8.57721 12.032 7.6381 12.032 6.83211C12.032 5.61674 11.6459 4.61759 10.8737 3.83468C10.1015 3.05177 9.14358 2.66031 7.99999 2.66031C6.8564 2.66031 5.8985 3.05177 5.12627 3.83468C4.35405 4.61759 3.96794 5.61674 3.96794 6.83211C3.96794 7.6381 4.31388 8.57721 5.00576 9.64943C5.69765 10.7217 6.69572 11.8415 7.99999 13.009ZM7.99999 13.9603C7.87008 13.9603 7.74017 13.9379 7.61026 13.893C7.48035 13.8481 7.36282 13.7787 7.25769 13.6847C6.65941 13.1334 6.09959 12.5657 5.57822 11.9815C5.05686 11.3973 4.60365 10.8133 4.21861 10.2296C3.83356 9.6458 3.52886 9.06716 3.30451 8.49366C3.08014 7.92015 2.96796 7.3663 2.96796 6.83211C2.96796 5.29367 3.46561 4.04816 4.46091 3.0956C5.4562 2.14303 6.63589 1.66675 7.99999 1.66675C9.36409 1.66675 10.5438 2.14303 11.5391 3.0956C12.5344 4.04816 13.032 5.29367 13.032 6.83211C13.032 7.3663 12.9198 7.91909 12.6955 8.49046C12.4711 9.06183 12.1675 9.64046 11.7846 10.2264C11.4017 10.8123 10.9495 11.3962 10.4282 11.9783C9.90681 12.5603 9.34698 13.127 8.74869 13.6782C8.6451 13.7723 8.52738 13.8428 8.39554 13.8898C8.26368 13.9368 8.13183 13.9603 7.99999 13.9603ZM8.00112 7.91032C8.33285 7.91032 8.61644 7.7922 8.85191 7.55598C9.08737 7.31976 9.20511 7.03579 9.20511 6.70406C9.20511 6.37234 9.087 6.08875 8.85077 5.85328C8.61455 5.61781 8.33058 5.50008 7.99886 5.50008C7.66713 5.50008 7.38354 5.61819 7.14807 5.85441C6.91261 6.09064 6.79487 6.37461 6.79487 6.70633C6.79487 7.03805 6.91298 7.32165 7.14921 7.55712C7.38543 7.79258 7.6694 7.91032 8.00112 7.91032Z" fill="#696972"/>
</g>
</svg>
