<svg width="29" height="28" viewBox="0 0 29 28" fill="none" xmlns="http://www.w3.org/2000/svg">
<mask id="mask0_1871_840" style="mask-type:alpha" maskUnits="userSpaceOnUse" x="0" y="0" width="29" height="28">
<rect x="0.5" width="28" height="28" fill="#D9D9D9"/>
</mask>
<g mask="url(#mask0_1871_840)">
<path d="M6.69229 23.9166C6.10293 23.9166 5.60409 23.7124 5.19575 23.3041C4.78742 22.8958 4.58325 22.3969 4.58325 21.8075V6.19229C4.58325 5.60293 4.78742 5.10409 5.19575 4.69575C5.60409 4.28742 6.10293 4.08325 6.69229 4.08325H13.6363C13.8844 4.08325 14.0923 4.16706 14.2599 4.33467C14.4273 4.50209 14.511 4.70995 14.511 4.95825C14.511 5.20656 14.4273 5.41442 14.2599 5.58184C14.0923 5.74945 13.8844 5.83325 13.6363 5.83325H6.69229C6.60246 5.83325 6.52021 5.87068 6.44554 5.94554C6.37068 6.02021 6.33325 6.10246 6.33325 6.19229V21.8075C6.33325 21.8974 6.37068 21.9796 6.44554 22.0543C6.52021 22.1292 6.60246 22.1666 6.69229 22.1666H13.6363C13.8844 22.1666 14.0923 22.2504 14.2599 22.418C14.4273 22.5854 14.511 22.7933 14.511 23.0416C14.511 23.2899 14.4273 23.4978 14.2599 23.6652C14.0923 23.8328 13.8844 23.9166 13.6363 23.9166H6.69229ZM21.0534 14.8749H11.9872C11.7389 14.8749 11.5309 14.7911 11.3633 14.6235C11.1959 14.4561 11.1122 14.2482 11.1122 13.9999C11.1122 13.7516 11.1959 13.5438 11.3633 13.3763C11.5309 13.2087 11.7389 13.1249 11.9872 13.1249H21.0534L18.8099 10.8814C18.6483 10.7198 18.5657 10.5228 18.562 10.2902C18.5583 10.0577 18.6409 9.85086 18.8099 9.66984C18.9789 9.48881 19.1838 9.39528 19.4247 9.38925C19.6654 9.38342 19.8763 9.47092 20.0573 9.65175L23.6673 13.2617C23.8781 13.4727 23.9835 13.7188 23.9835 13.9999C23.9835 14.2811 23.8781 14.5272 23.6673 14.7381L20.0573 18.3481C19.8839 18.5215 19.6779 18.6071 19.4393 18.6048C19.2007 18.6026 18.9909 18.511 18.8099 18.33C18.6409 18.149 18.5594 17.9411 18.5655 17.7064C18.5713 17.4715 18.6588 17.2696 18.828 17.1006L21.0534 14.8749Z" fill="#ABABAB"/>
</g>
</svg>
