<svg width="24" height="25" viewBox="0 0 24 25" fill="none" xmlns="http://www.w3.org/2000/svg">
<mask id="mask0_1916_784" style="mask-type:alpha" maskUnits="userSpaceOnUse" x="0" y="0" width="24" height="25">
<rect y="0.5" width="24" height="24" fill="#D9D9D9"/>
</mask>
<g mask="url(#mask0_1916_784)">
<path d="M5 19.5H6.098L16.7962 8.802L15.698 7.70375L5 18.402V19.5ZM4 20.5V17.9808L17.1807 4.7865C17.2832 4.69517 17.3963 4.62458 17.52 4.57475C17.6438 4.52492 17.7729 4.5 17.9072 4.5C18.0416 4.5 18.1717 4.52117 18.2977 4.5635C18.4236 4.60583 18.5398 4.68208 18.6462 4.79225L19.7135 5.8655C19.8237 5.97183 19.899 6.0885 19.9395 6.2155C19.9798 6.34267 20 6.46975 20 6.59675C20 6.73225 19.9772 6.86192 19.9315 6.98575C19.8858 7.10942 19.8132 7.2225 19.7135 7.325L6.51925 20.5H4ZM16.2375 8.2625L15.698 7.70375L16.7962 8.802L16.2375 8.2625Z" fill="#868691"/>
</g>
</svg>
