<svg width="16" height="16" viewBox="0 0 16 16" fill="none" xmlns="http://www.w3.org/2000/svg">
<mask id="mask0_1948_3784" style="mask-type:alpha" maskUnits="userSpaceOnUse" x="0" y="0" width="16" height="16">
<rect width="16" height="16" fill="#D9D9D9"/>
</mask>
<g mask="url(#mask0_1948_3784)">
<path d="M8 15C6.02311 15 4.36222 14.638 3.01733 13.914C1.67244 13.1901 1 12.3021 1 11.25C1 10.9363 1.06667 10.6342 1.2 10.3437C1.33333 10.053 1.531 9.77176 1.793 9.49999C2.055 9.22821 2.37667 8.98521 2.758 8.77099C3.13944 8.55687 3.56928 8.36099 4.0475 8.18332C4.17139 8.13376 4.29478 8.14082 4.41767 8.20448C4.54044 8.26815 4.623 8.36793 4.66533 8.50382C4.70811 8.62771 4.69639 8.74993 4.63017 8.87049C4.56394 8.99104 4.46672 9.07948 4.3385 9.13582C3.98461 9.25804 3.6645 9.39948 3.37817 9.56015C3.09183 9.72093 2.84483 9.8966 2.63717 10.0872C2.42261 10.2777 2.26278 10.4711 2.15767 10.6673C2.05256 10.8634 2 11.0577 2 11.25C2 11.9868 2.59789 12.6293 3.79367 13.1775C4.98933 13.7258 6.39144 14 8 14C9.60856 14 11.0107 13.7258 12.2063 13.1775C13.4021 12.6293 14 11.9868 14 11.25C14 11.0577 13.9474 10.8634 13.8423 10.6673C13.7372 10.4711 13.5774 10.2777 13.3628 10.0872C13.1552 9.8966 12.9082 9.72093 12.6218 9.56015C12.3355 9.39948 12.0154 9.25804 11.6615 9.13582C11.5333 9.07948 11.4361 8.99104 11.3698 8.87049C11.3036 8.74993 11.2919 8.62704 11.3347 8.50182C11.3773 8.36815 11.46 8.26926 11.5827 8.20515C11.7053 8.14104 11.8308 8.13376 11.959 8.18332C12.3701 8.33287 12.7483 8.50299 13.0935 8.69365C13.4388 8.88421 13.7393 9.09104 13.9948 9.31415C14.3298 9.60226 14.5811 9.9091 14.7487 10.2347C14.9162 10.5602 15 10.8987 15 11.25C15 12.3021 14.3276 13.1901 12.9827 13.914C11.6378 14.638 9.97689 15 8 15ZM6.769 12.3077C6.62733 12.3077 6.50861 12.2598 6.41283 12.164C6.31717 12.0681 6.26933 11.9493 6.26933 11.8077V5.03199H3.5C3.35833 5.03199 3.23961 4.98404 3.14383 4.88815C3.04794 4.79226 3 4.67349 3 4.53182C3 4.39004 3.04794 4.27132 3.14383 4.17565C3.23961 4.07987 3.35833 4.03199 3.5 4.03199H12.5C12.6417 4.03199 12.7604 4.07993 12.8562 4.17582C12.9521 4.27171 13 4.39054 13 4.53232C13 4.67399 12.9521 4.79271 12.8562 4.88849C12.7604 4.98415 12.6417 5.03199 12.5 5.03199H9.73067V11.8077C9.73067 11.9493 9.68278 12.0681 9.587 12.164C9.49111 12.2598 9.37228 12.3077 9.2305 12.3077C9.08883 12.3077 8.97011 12.2598 8.87433 12.164C8.77867 12.0681 8.73083 11.9493 8.73083 11.8077V8.99349H7.26917V11.8077C7.26917 11.9493 7.22122 12.0681 7.12533 12.164C7.02956 12.2598 6.91078 12.3077 6.769 12.3077ZM8.00017 3.30132C7.68472 3.30132 7.41461 3.18893 7.18983 2.96415C6.96495 2.73949 6.8525 2.46937 6.8525 2.15382C6.8525 1.83482 6.96489 1.56171 7.18967 1.33449C7.41433 1.10726 7.68439 0.993652 7.99983 0.993652C8.31528 0.993652 8.58539 1.10726 8.81017 1.33449C9.03506 1.56171 9.1475 1.83482 9.1475 2.15382C9.1475 2.46937 9.03517 2.73949 8.8105 2.96415C8.58572 3.18893 8.31561 3.30132 8.00017 3.30132Z" fill="#363A3D"/>
</g>
</svg>
