<svg xmlns="http://www.w3.org/2000/svg" width="20" height="20" viewBox="0 0 20 20" fill="none">
  <mask id="mask0_1973_436" style="mask-type:alpha" maskUnits="userSpaceOnUse" x="0" y="0" width="20" height="20">
    <rect width="20" height="20" fill="#D9D9D9"/>
  </mask>
  <g mask="url(#mask0_1973_436)">
    <path d="M10.625 10.5801V7.29165C10.625 7.1143 10.5652 6.9658 10.4455 6.84615C10.3258 6.72649 10.1773 6.66667 10 6.66667C9.82265 6.66667 9.67415 6.72649 9.5545 6.84615C9.43485 6.9658 9.37502 7.1143 9.37502 7.29165V10.7724C9.37502 10.8729 9.39318 10.9685 9.4295 11.0593C9.46582 11.1501 9.52298 11.2345 9.60098 11.3125L12.0385 13.75C12.1539 13.8654 12.2989 13.9244 12.4736 13.9271C12.6482 13.9298 12.7959 13.8707 12.9167 13.75C13.0374 13.6293 13.0978 13.4829 13.0978 13.3109C13.0978 13.1389 13.0374 12.9925 12.9167 12.8718L10.625 10.5801ZM10 17.9166C9.0171 17.9166 8.09616 17.7307 7.23719 17.3589C6.37822 16.9871 5.62928 16.4818 4.9904 15.8429C4.35152 15.2041 3.84619 14.4551 3.4744 13.5961C3.10259 12.7372 2.91669 11.8162 2.91669 10.8333C2.91669 9.85043 3.10259 8.92949 3.4744 8.07052C3.84619 7.21155 4.35152 6.46262 4.9904 5.82373C5.62928 5.18486 6.37822 4.67952 7.23719 4.30773C8.09616 3.93592 9.0171 3.75002 10 3.75002C10.9829 3.75002 11.9038 3.93592 12.7628 4.30773C13.6218 4.67952 14.3707 5.18486 15.0096 5.82373C15.6485 6.46262 16.1538 7.21155 16.5256 8.07052C16.8974 8.92949 17.0833 9.85043 17.0833 10.8333C17.0833 11.8162 16.8974 12.7372 16.5256 13.5961C16.1538 14.4551 15.6485 15.2041 15.0096 15.8429C14.3707 16.4818 13.6218 16.9871 12.7628 17.3589C11.9038 17.7307 10.9829 17.9166 10 17.9166ZM2.01283 6.06731C1.89211 5.94659 1.83175 5.80022 1.83175 5.62821C1.83175 5.45621 1.89211 5.30985 2.01283 5.18913L4.35579 2.84617C4.47117 2.73079 4.61619 2.67177 4.79088 2.66911C4.96556 2.66642 5.11326 2.72545 5.23398 2.84617C5.3547 2.9669 5.41506 3.11327 5.41506 3.28527C5.41506 3.45727 5.3547 3.60363 5.23398 3.72435L2.89102 6.06731C2.77565 6.18269 2.63062 6.24172 2.45594 6.2444C2.28127 6.24706 2.13357 6.18804 2.01283 6.06731ZM17.9872 6.06731C17.8664 6.18804 17.7201 6.2484 17.5481 6.2484C17.3761 6.2484 17.2297 6.18804 17.109 6.06731L14.766 3.72435C14.6506 3.60898 14.5916 3.46395 14.5889 3.28927C14.5863 3.11461 14.6453 2.9669 14.766 2.84617C14.8867 2.72545 15.0331 2.66508 15.2051 2.66508C15.3771 2.66508 15.5235 2.72545 15.6442 2.84617L17.9872 5.18913C18.1025 5.3045 18.1616 5.44953 18.1642 5.62421C18.1669 5.79889 18.1079 5.94659 17.9872 6.06731ZM10 16.6667C11.6197 16.6667 12.9968 16.0994 14.1314 14.9648C15.266 13.8301 15.8333 12.453 15.8333 10.8333C15.8333 9.21368 15.266 7.83654 14.1314 6.70192C12.9968 5.56731 11.6197 5 10 5C8.38035 5 7.00321 5.56731 5.86858 6.70192C4.73397 7.83654 4.16667 9.21368 4.16667 10.8333C4.16667 12.453 4.73397 13.8301 5.86858 14.9648C7.00321 16.0994 8.38035 16.6667 10 16.6667Z" fill="#696972"/>
  </g>
</svg>
